<?xml version="1.0" standalone="no"?>
<!DOCTYPE svg PUBLIC "-//W3C//DTD SVG 20010904//EN"
 "http://www.w3.org/TR/2001/REC-SVG-20010904/DTD/svg10.dtd">
<svg version="1.0" xmlns="http://www.w3.org/2000/svg"
 width="100.000000pt" height="100.000000pt" viewBox="0 0 100.000000 100.000000"
 preserveAspectRatio="xMidYMid meet">
<metadata>
Created by potrace 1.14, written by Peter Selinger 2001-2017
</metadata>
<g transform="translate(0.000000,100.000000) scale(0.100000,-0.100000)"
fill="#000000" stroke="none">
<path d="M379 902 c-132 -35 -234 -119 -293 -242 -28 -59 -31 -74 -31 -160 0
-83 4 -103 28 -154 69 -148 199 -241 366 -262 l55 -7 -35 31 -34 30 -3 186 -3
186 -29 0 c-29 0 -50 22 -50 54 0 22 28 46 56 46 23 0 24 2 24 79 0 75 2 81
27 101 19 15 35 19 53 15 45 -11 55 -30 58 -115 l4 -80 39 0 c30 0 42 -5 55
-25 15 -23 15 -27 0 -50 -13 -20 -25 -25 -56 -25 l-40 0 0 -144 c0 -79 3 -151
6 -160 5 -12 20 -16 64 -16 58 0 75 -9 81 -43 4 -15 11 -13 55 17 64 44 115
105 151 182 24 51 28 71 28 154 0 86 -3 101 -31 160 -95 200 -321 300 -545
242z"/>
</g>
</svg>
